<svg width="220" height="200" viewBox="0 0 220 200" fill="none" xmlns="http://www.w3.org/2000/svg">
  <!-- Exact replica of uploaded logo -->
  <g transform="translate(10, 10)">
    <!-- House foundation/base platform -->
    <rect x="0" y="100" width="180" height="12" fill="#2563eb"/>

    <!-- House main structure -->
    <!-- House back wall (left side) -->
    <path d="M20 100 L20 50 L90 10 L90 50 Z" fill="#2563eb"/>

    <!-- House front wall -->
    <rect x="90" y="50" width="70" height="50" fill="#2563eb"/>

    <!-- House roof -->
    <path d="M20 50 L90 10 L160 50 Z" fill="#2563eb"/>

    <!-- Windows - 2x2 grid on front wall -->
    <rect x="100" y="30" width="12" height="12" fill="white"/>
    <rect x="118" y="30" width="12" height="12" fill="white"/>
    <rect x="100" y="48" width="12" height="12" fill="white"/>
    <rect x="118" y="48" width="12" height="12" fill="white"/>

    <!-- Trending upward arrow - zigzag pattern like stock chart -->
    <path d="M25 85 L45 70 L65 50 L85 55 L105 35 L125 15 L145 5" stroke="#2563eb" stroke-width="8" fill="none" stroke-linejoin="round" stroke-linecap="round"/>

    <!-- Clear prominent arrow head -->
    <path d="M145 5 L135 0 L135 10 Z" fill="#2563eb"/>
    <path d="M145 5 L155 0 L155 10 Z" fill="#2563eb"/>
  </g>

  <!-- FLIPCO text - bold and large -->
  <text x="110" y="150" font-family="Arial, sans-serif" font-size="42" font-weight="900" fill="#2563eb" text-anchor="middle">FLIPCO</text>

  <!-- CAPITAL text - smaller with letter spacing -->
  <text x="110" y="180" font-family="Arial, sans-serif" font-size="22" font-weight="700" fill="#2563eb" text-anchor="middle" letter-spacing="6px">CAPITAL</text>
</svg>
