<svg width="200" height="200" viewBox="0 0 200 200" fill="none" xmlns="http://www.w3.org/2000/svg">
  <!-- House with arrow - exact replica of uploaded image -->
  <g transform="translate(25, 15)">
    <!-- House foundation/base platform -->
    <rect x="0" y="90" width="150" height="8" fill="#2563eb"/>

    <!-- House main structure -->
    <!-- House walls and frame -->
    <path d="M10 90 L10 50 L75 10 L140 50 L140 90 Z" fill="none" stroke="#2563eb" stroke-width="6"/>

    <!-- House roof filled -->
    <path d="M10 50 L75 10 L140 50 Z" fill="#2563eb"/>

    <!-- House front wall -->
    <rect x="25" y="50" width="100" height="40" fill="none" stroke="#2563eb" stroke-width="6"/>

    <!-- Left side wall -->
    <path d="M10 50 L25 50 L25 90 L10 90 Z" fill="#2563eb"/>

    <!-- Windows - 2x2 grid -->
    <rect x="45" y="30" width="12" height="12" fill="#2563eb"/>
    <rect x="63" y="30" width="12" height="12" fill="#2563eb"/>
    <rect x="45" y="47" width="12" height="12" fill="#2563eb"/>
    <rect x="63" y="47" width="12" height="12" fill="#2563eb"/>

    <!-- Upward trending arrow -->
    <path d="M20 80 L45 65 L70 45 L95 25 L120 10 L145 0" stroke="#2563eb" stroke-width="8" fill="none"/>

    <!-- Arrow head -->
    <path d="M145 0 L135 -6 L135 6 Z" fill="#2563eb"/>
  </g>

  <!-- FLIPCO text -->
  <text x="100" y="140" font-family="Arial, sans-serif" font-size="40" font-weight="900" fill="#2563eb" text-anchor="middle">FLIPCO</text>

  <!-- CAPITAL text -->
  <text x="100" y="170" font-family="Arial, sans-serif" font-size="20" font-weight="700" fill="#2563eb" text-anchor="middle" letter-spacing="6px">CAPITAL</text>
</svg>
